<svg xmlns="http://www.w3.org/2000/svg" width="174" height="35" viewBox="0 0 174 35">
    <g fill="none" fill-rule="evenodd">
        <path fill="#FFF" d="M77.91 12.275v22.029H71.3v-2.527c-.753.97-1.802 1.74-3.148 2.312-1.346.572-2.803.859-4.373.859-2.067 0-3.897-.481-5.49-1.443-1.595-.961-2.824-2.304-3.69-4.029-.865-1.724-1.297-3.731-1.297-6.02 0-2.384.465-4.474 1.394-6.27.929-1.796 2.238-3.19 3.928-4.184 1.69-.994 3.617-1.49 5.78-1.49 3.187 0 5.614.97 7.28 2.908l.457-2.145h5.767zM65.605 28.797c1.602 0 2.904-.513 3.905-1.538s1.502-2.388 1.502-4.089c0-1.653-.501-2.984-1.502-3.993-1.001-1.01-2.303-1.514-3.905-1.514-1.602 0-2.883.512-3.845 1.538-.96 1.025-1.441 2.364-1.441 4.017 0 1.653.484 2.996 1.453 4.029.97 1.033 2.247 1.55 3.833 1.55zm38.15-27.99v33.497h-5.72l-.384-2.647c-.753 1.05-1.794 1.86-3.124 2.432-1.33.572-2.803.859-4.421.859-2.13 0-4.025-.49-5.683-1.467-1.658-.977-2.952-2.344-3.88-4.1-.93-1.757-1.395-3.795-1.395-6.116 0-2.304.465-4.355 1.394-6.15.93-1.797 2.223-3.18 3.88-4.149 1.659-.97 3.553-1.454 5.684-1.454 1.474 0 2.787.202 3.94.608 1.154.405 2.107.997 2.86 1.776V.807h6.849zm-12.303 27.99c1.601 0 2.903-.513 3.904-1.538 1.002-1.025 1.502-2.388 1.502-4.089 0-1.653-.5-2.984-1.502-3.993-1-1.01-2.303-1.514-3.904-1.514-1.602 0-2.884.512-3.845 1.538-.961 1.025-1.442 2.364-1.442 4.017 0 1.653.485 2.996 1.454 4.029s2.247 1.55 3.833 1.55zm41.61-17.285c2.402 0 4.357.763 5.863 2.289 1.505 1.525 2.258 3.544 2.258 6.055v14.448h-6.848V21.5c0-1.303-.329-2.312-.985-3.028-.657-.715-1.49-1.072-2.5-1.072-1.249 0-2.218.409-2.907 1.227-.689.819-1.033 1.896-1.033 3.23v12.446h-6.728V21.5c0-1.271-.329-2.265-.986-2.98-.656-.715-1.546-1.073-2.667-1.073-1.185 0-2.115.41-2.787 1.228-.673.819-1.01 1.88-1.01 3.183v12.445h-6.872v-22.03h6.344l.288 2.051c.689-.874 1.59-1.562 2.703-2.062a8.543 8.543 0 0 1 3.545-.751c1.57 0 2.987.35 4.253 1.049 1.266.7 2.21 1.645 2.835 2.837a7.15 7.15 0 0 1 2.908-2.873c1.25-.675 2.691-1.013 4.325-1.013zm13.687-2.456c-1.282 0-2.367-.421-3.256-1.263-.89-.843-1.334-1.868-1.334-3.076 0-1.24.437-2.273 1.31-3.1.873-.826 1.966-1.239 3.28-1.239 1.314 0 2.403.413 3.268 1.24.865.826 1.298 1.86 1.298 3.1 0 1.175-.441 2.192-1.322 3.05-.881.86-1.962 1.288-3.244 1.288zm-3.436 3.219h6.872v22.029h-6.872v-22.03zm22.218-.763c2.659 0 4.73.826 6.211 2.48 1.482 1.652 2.223 3.87 2.223 6.65v13.662h-6.896V22.24c0-3.02-1.25-4.53-3.749-4.53-1.314 0-2.307.382-2.98 1.145-.672.763-1.009 1.828-1.009 3.195v12.254h-6.824v-22.03h5.695l.456 2.409c.69-.97 1.646-1.74 2.872-2.313 1.225-.572 2.559-.858 4-.858z"/>
        <g fill-rule="nonzero">
            <path fill="#4E27FF" d="M20.451 12.017H2.272A2.274 2.274 0 0 0 0 14.29v18.185a2.274 2.274 0 0 0 2.272 2.273h18.18a2.274 2.274 0 0 0 2.272-2.273V14.29a2.274 2.274 0 0 0-2.273-2.273z"/>
            <path fill="#1EFF04" d="M22.724 34.748c6.264 0 11.361-5.098 11.361-11.366 0-6.267-5.097-11.365-11.361-11.365-6.265 0-11.362 5.098-11.362 11.365 0 6.268 5.097 11.366 11.362 11.366z"/>
            <path fill="#F8E71C" d="M36.118 13.272a2.274 2.274 0 0 0-4.065 0l-9.09 18.186a2.272 2.272 0 0 0 2.033 3.29h18.179a2.272 2.272 0 0 0 2.033-3.289l-9.09-18.187z"/>
        </g>
    </g>
</svg>
