<svg xmlns="http://www.w3.org/2000/svg" width="103" height="22" viewBox="0 0 103 22">
    <g fill="none" fill-rule="evenodd">
        <path fill="#6764FF" d="M45.92 8.156v13.328h-3.894v-1.53c-.444.587-1.062 1.054-1.856 1.4a6.373 6.373 0 0 1-2.577.52c-1.218 0-2.297-.292-3.237-.873-.94-.582-1.664-1.395-2.174-2.438-.51-1.043-.764-2.257-.764-3.642 0-1.442.273-2.707.821-3.793.548-1.087 1.32-1.93 2.316-2.532.996-.6 2.131-.901 3.406-.901 1.879 0 3.31.586 4.291 1.76l.27-1.299h3.399zm-7.25 9.996c.943 0 1.71-.31 2.3-.93.59-.62.886-1.445.886-2.474 0-1-.295-1.805-.885-2.416-.59-.61-1.358-.916-2.302-.916s-1.7.31-2.266.93c-.567.62-.85 1.43-.85 2.43 0 1 .286 1.813.857 2.438.571.625 1.324.938 2.26.938zM61.154 1.218v20.266h-3.37l-.227-1.601c-.444.634-1.058 1.125-1.842 1.471-.783.346-1.652.52-2.606.52-1.256 0-2.372-.296-3.35-.888-.977-.591-1.739-1.418-2.287-2.48-.547-1.063-.821-2.296-.821-3.7 0-1.395.274-2.635.821-3.722.548-1.086 1.31-1.923 2.288-2.51.977-.586 2.093-.88 3.35-.88.868 0 1.642.123 2.322.368.68.246 1.242.604 1.686 1.075V1.218h4.036zm-7.252 16.934c.945 0 1.712-.31 2.302-.93.59-.62.885-1.445.885-2.474 0-1-.295-1.805-.885-2.416-.59-.61-1.357-.916-2.302-.916-.944 0-1.7.31-2.266.93-.566.62-.85 1.43-.85 2.43 0 1 .286 1.813.857 2.438.572.625 1.325.938 2.26.938zM78.43 7.695c1.416 0 2.568.461 3.456 1.384.887.923 1.331 2.145 1.331 3.664v8.74H79.18v-7.745c0-.788-.194-1.399-.581-1.832-.387-.432-.878-.649-1.473-.649-.737 0-1.308.248-1.714.743-.406.495-.609 1.147-.609 1.955v7.529h-3.966v-7.746c0-.769-.193-1.37-.58-1.803-.387-.432-.912-.649-1.572-.649-.7 0-1.247.248-1.643.743-.397.495-.595 1.137-.595 1.926v7.529h-4.051V8.156h3.74l.17 1.24a4.17 4.17 0 0 1 1.592-1.247 4.926 4.926 0 0 1 2.09-.454c.925 0 1.76.211 2.506.634.746.423 1.303.996 1.672 1.717a4.27 4.27 0 0 1 1.713-1.738c.737-.409 1.587-.613 2.55-.613zm8.068-1.486c-.756 0-1.396-.255-1.92-.764a2.498 2.498 0 0 1-.786-1.861c0-.75.258-1.375.772-1.875.515-.5 1.16-.75 1.934-.75s1.416.25 1.926.75.765 1.125.765 1.875c0 .711-.26 1.327-.78 1.846-.519.52-1.156.779-1.911.779zM84.47 8.156h4.05v13.328h-4.05V8.156zm13.096-.461c1.567 0 2.788.5 3.661 1.5.873 1 1.31 2.341 1.31 4.024v8.265h-4.065v-7.299c0-1.827-.736-2.74-2.21-2.74-.773 0-1.359.23-1.755.692-.397.462-.595 1.106-.595 1.933v7.414H89.89V8.156h3.357l.27 1.457c.405-.587.97-1.053 1.692-1.4a5.385 5.385 0 0 1 2.358-.518z"/>
        <g fill-rule="nonzero">
            <path fill="#6764FF" d="M12.054 8H1.34C.6 8 0 8.616 0 9.375v11.002c0 .76.6 1.376 1.34 1.376h10.714c.74 0 1.34-.616 1.34-1.376V9.375c0-.759-.6-1.375-1.34-1.375z" style="mix-blend-mode:multiply"/>
            <path fill="#1EFF04" d="M13.394 21.753c3.692 0 6.696-3.085 6.696-6.877C20.09 11.085 17.086 8 13.394 8 9.7 8 6.697 11.085 6.697 14.876c0 3.792 3.004 6.877 6.697 6.877z" style="mix-blend-mode:multiply"/>
            <path fill="#F8E71C" d="M21.289 8.76A1.337 1.337 0 0 0 20.09 8c-.506 0-.97.294-1.198.76l-5.357 11.002c-.208.426-.185.932.059 1.338s.675.653 1.14.653h10.714c.464 0 .895-.247 1.14-.652.243-.406.265-.912.058-1.338L21.289 8.76z" style="mix-blend-mode:multiply"/>
        </g>
    </g>
</svg>
