<svg xmlns="http://www.w3.org/2000/svg" width="12" height="17" viewBox="0 0 12 17">
    <path fill="#FFF" fill-rule="nonzero" d="M11.667 6.158h-1V4.789C10.667 2.15 8.573 0 6 0S1.333 2.149 1.333 4.79v1.368h-1A.338.338 0 0 0 0 6.5v8.553c0 .754.598 1.368 1.333 1.368h9.334c.735 0 1.333-.614 1.333-1.368V6.5c0-.19-.15-.342-.333-.342zm-4.669 7.146a.349.349 0 0 1-.083.266.33.33 0 0 1-.248.114H5.333a.33.33 0 0 1-.248-.114.349.349 0 0 1-.083-.266l.21-1.94a1.365 1.365 0 0 1-.545-1.1c0-.756.598-1.37 1.333-1.37s1.333.614 1.333 1.37c0 .442-.204.845-.545 1.1l.21 1.94zm1.669-7.146H3.333V4.789C3.333 3.28 4.53 2.053 6 2.053c1.47 0 2.667 1.227 2.667 2.736v1.369z"/>
</svg>
