<?xml version="1.0" encoding="utf-8"?>
<!-- Generator: Adobe Illustrator 22.1.0, SVG Export Plug-In . SVG Version: 6.00 Build 0)  -->
<svg version="1.1" id="Layer_1" xmlns="http://www.w3.org/2000/svg" xmlns:xlink="http://www.w3.org/1999/xlink" x="0px" y="0px"
	 viewBox="0 0 100 100" style="enable-background:new 0 0 100 100;" xml:space="preserve">
<style type="text/css">
	.st0{fill:none;}
	.st1{fill:url(#path-2_3_);}
	.st2{filter:url(#filter-3);}
	.st3{fill:none;stroke:#000000;stroke-width:2;}
	.st4{fill:url(#path-5_3_);}
	.st5{filter:url(#filter-6);}
	.st6{fill:url(#path-7_3_);}
	.st7{filter:url(#filter-8);}
	.st8{fill:url(#path-10_3_);}
	.st9{filter:url(#filter-11);}
	.st10{fill:url(#path-13_3_);}
	.st11{filter:url(#filter-14);}
	.st12{fill:url(#path-16_3_);}
	.st13{filter:url(#filter-17);}
	.st14{fill:url(#path-18_3_);}
	.st15{filter:url(#filter-19);}
</style>
<filter  filterUnits="objectBoundingBox" height="207.7%" id="filter-8" width="117.9%" x="-8.9%" y="-53.9%">
	<feOffset  dx="3" dy="4" in="SourceAlpha" result="shadowOffsetInner1"></feOffset>
	<feComposite  in="shadowOffsetInner1" in2="SourceAlpha" k2="-1" k3="1" operator="arithmetic" result="shadowInnerInner1">
		</feComposite>
	<feColorMatrix  in="shadowInnerInner1" type="matrix" values="0 0 0 0 1   0 0 0 0 1   0 0 0 0 1  0 0 0 0.3 0"></feColorMatrix>
</filter>
<filter  filterUnits="objectBoundingBox" height="207.7%" id="filter-6" width="117.9%" x="-8.9%" y="-53.9%">
	<feOffset  dx="3" dy="4" in="SourceAlpha" result="shadowOffsetInner1"></feOffset>
	<feComposite  in="shadowOffsetInner1" in2="SourceAlpha" k2="-1" k3="1" operator="arithmetic" result="shadowInnerInner1">
		</feComposite>
	<feColorMatrix  in="shadowInnerInner1" type="matrix" values="0 0 0 0 1   0 0 0 0 1   0 0 0 0 1  0 0 0 0.3 0"></feColorMatrix>
</filter>
<filter  filterUnits="objectBoundingBox" height="110.6%" id="filter-3" width="111.9%" x="-6.0%" y="-5.3%">
	<feOffset  dx="4" dy="3" in="SourceAlpha" result="shadowOffsetInner1"></feOffset>
	<feComposite  in="shadowOffsetInner1" in2="SourceAlpha" k2="-1" k3="1" operator="arithmetic" result="shadowInnerInner1">
		</feComposite>
	<feColorMatrix  in="shadowInnerInner1" type="matrix" values="0 0 0 0 1   0 0 0 0 1   0 0 0 0 1  0 0 0 0.304605551 0">
		</feColorMatrix>
</filter>
<filter  filterUnits="objectBoundingBox" height="233.9%" id="filter-19" width="233.9%" x="-117.0%" y="-17.0%">
	<feOffset  dx="3" dy="4" in="SourceAlpha" result="shadowOffsetInner1"></feOffset>
	<feComposite  in="shadowOffsetInner1" in2="SourceAlpha" k2="-1" k3="1" operator="arithmetic" result="shadowInnerInner1">
		</feComposite>
	<feColorMatrix  in="shadowInnerInner1" type="matrix" values="0 0 0 0 1   0 0 0 0 1   0 0 0 0 1  0 0 0 0.3 0"></feColorMatrix>
</filter>
<filter  filterUnits="objectBoundingBox" height="117.0%" id="filter-17" width="117.0%" x="-8.5%" y="-8.5%">
	<feOffset  dx="3" dy="4" in="SourceAlpha" result="shadowOffsetInner1"></feOffset>
	<feComposite  in="shadowOffsetInner1" in2="SourceAlpha" k2="-1" k3="1" operator="arithmetic" result="shadowInnerInner1">
		</feComposite>
	<feColorMatrix  in="shadowInnerInner1" type="matrix" values="0 0 0 0 1   0 0 0 0 1   0 0 0 0 1  0 0 0 0.3 0"></feColorMatrix>
</filter>
<filter  filterUnits="objectBoundingBox" height="207.7%" id="filter-14" width="153.7%" x="-26.8%" y="-53.9%">
	<feOffset  dx="3" dy="4" in="SourceAlpha" result="shadowOffsetInner1"></feOffset>
	<feComposite  in="shadowOffsetInner1" in2="SourceAlpha" k2="-1" k3="1" operator="arithmetic" result="shadowInnerInner1">
		</feComposite>
	<feColorMatrix  in="shadowInnerInner1" type="matrix" values="0 0 0 0 1   0 0 0 0 1   0 0 0 0 1  0 0 0 0.3 0"></feColorMatrix>
</filter>
<filter  filterUnits="objectBoundingBox" height="207.7%" id="filter-11" width="132.2%" x="-16.1%" y="-53.9%">
	<feOffset  dx="3" dy="4" in="SourceAlpha" result="shadowOffsetInner1"></feOffset>
	<feComposite  in="shadowOffsetInner1" in2="SourceAlpha" k2="-1" k3="1" operator="arithmetic" result="shadowInnerInner1">
		</feComposite>
	<feColorMatrix  in="shadowInnerInner1" type="matrix" values="0 0 0 0 1   0 0 0 0 1   0 0 0 0 1  0 0 0 0.3 0"></feColorMatrix>
</filter>
<title>Reports</title>
<desc>Created with Sketch.</desc>
<g id="Page-1">
	<g id="Icons" transform="translate(-457.000000, -451.000000)">
		<g id="Reports" transform="translate(439.000000, 440.000000)">
			<rect id="Rectangle-Copy-27" x="15" y="15" class="st0" width="100" height="100"/>
			<g id="Group-13" transform="translate(19.000000, 16.000000)">
				<g id="Rectangle">
					<g>
						
							<linearGradient id="path-2_3_" gradientUnits="userSpaceOnUse" x1="0.7783" y1="94.7536" x2="0.7783" y2="95.7536" gradientTransform="matrix(50.3014 0 0 -56.8219 1 5463.082)">
							<stop  offset="0" style="stop-color:#D763FF"/>
							<stop  offset="1" style="stop-color:#8B64FA"/>
						</linearGradient>
						<path id="path-2" class="st1" d="M21,22.2h32.2l12.1,19.3V73c0,3.3-2.7,6-6,6H21c-3.3,0-6-2.7-6-6V28.2
							C15,24.9,17.7,22.2,21,22.2z"/>
					</g>
					<g class="st2">
						<path id="path-2_4_" d="M21,22.2h32.2l12.1,19.3V73c0,3.3-2.7,6-6,6H21c-3.3,0-6-2.7-6-6V28.2C15,24.9,17.7,22.2,21,22.2z"/>
					</g>
					<g>
						<path id="path-2_2_" class="st3" d="M21,22.2h32.2l12.1,19.3V73c0,3.3-2.7,6-6,6H21c-3.3,0-6-2.7-6-6V28.2
							C15,24.9,17.7,22.2,21,22.2z"/>
					</g>
				</g>
				<g id="Rectangle_1_">
					<g>
						
							<linearGradient id="path-5_3_" gradientUnits="userSpaceOnUse" x1="0.9175" y1="93.4869" x2="0.9175" y2="92.4869" gradientTransform="matrix(33.5342 0 0 -5.5708 10.0868 586.7534)">
							<stop  offset="0" style="stop-color:#FDEB86"/>
							<stop  offset="1" style="stop-color:#F9724E"/>
						</linearGradient>
						<path id="path-5" class="st4" d="M26.9,66h28c1.5,0,2.8,1.2,2.8,2.8l0,0c0,1.5-1.2,2.8-2.8,2.8h-28c-1.5,0-2.8-1.2-2.8-2.8
							l0,0C24.1,67.2,25.3,66,26.9,66z"/>
					</g>
					<g class="st5">
						<path id="path-5_4_" d="M26.9,66h28c1.5,0,2.8,1.2,2.8,2.8l0,0c0,1.5-1.2,2.8-2.8,2.8h-28c-1.5,0-2.8-1.2-2.8-2.8l0,0
							C24.1,67.2,25.3,66,26.9,66z"/>
					</g>
					<g>
						<path id="path-5_2_" class="st3" d="M26.9,66h28c1.5,0,2.8,1.2,2.8,2.8l0,0c0,1.5-1.2,2.8-2.8,2.8h-28c-1.5,0-2.8-1.2-2.8-2.8
							l0,0C24.1,67.2,25.3,66,26.9,66z"/>
					</g>
				</g>
				<g id="Rectangle-Copy-28">
					<g>
						
							<linearGradient id="path-7_3_" gradientUnits="userSpaceOnUse" x1="0.9175" y1="93.4869" x2="0.9175" y2="92.4869" gradientTransform="matrix(33.5342 0 0 -5.5708 10.0868 575.5754)">
							<stop  offset="0" style="stop-color:#FDEB86"/>
							<stop  offset="1" style="stop-color:#F9724E"/>
						</linearGradient>
						<path id="path-7" class="st6" d="M26.9,54.8h28c1.5,0,2.8,1.2,2.8,2.8l0,0c0,1.5-1.2,2.8-2.8,2.8h-28c-1.5,0-2.8-1.2-2.8-2.8
							l0,0C24.1,56,25.3,54.8,26.9,54.8z"/>
					</g>
					<g class="st7">
						<path id="path-7_4_" d="M26.9,54.8h28c1.5,0,2.8,1.2,2.8,2.8l0,0c0,1.5-1.2,2.8-2.8,2.8h-28c-1.5,0-2.8-1.2-2.8-2.8l0,0
							C24.1,56,25.3,54.8,26.9,54.8z"/>
					</g>
					<g>
						<path id="path-7_2_" class="st3" d="M26.9,54.8h28c1.5,0,2.8,1.2,2.8,2.8l0,0c0,1.5-1.2,2.8-2.8,2.8h-28
							c-1.5,0-2.8-1.2-2.8-2.8l0,0C24.1,56,25.3,54.8,26.9,54.8z"/>
					</g>
				</g>
				<g id="Rectangle-Copy-29">
					<g>
						
							<linearGradient id="path-10_3_" gradientUnits="userSpaceOnUse" x1="1.2515" y1="93.4869" x2="1.2515" y2="92.4869" gradientTransform="matrix(18.6301 0 0 -5.5708 10.0868 564.3973)">
							<stop  offset="0" style="stop-color:#FDEB86"/>
							<stop  offset="1" style="stop-color:#F9724E"/>
						</linearGradient>
						<path id="path-10" class="st8" d="M26.9,43.6h13.1c1.5,0,2.8,1.2,2.8,2.8v0c0,1.5-1.2,2.8-2.8,2.8H26.9
							c-1.5,0-2.8-1.2-2.8-2.8v0C24.1,44.8,25.3,43.6,26.9,43.6z"/>
					</g>
					<g class="st9">
						<path id="path-10_4_" d="M26.9,43.6h13.1c1.5,0,2.8,1.2,2.8,2.8v0c0,1.5-1.2,2.8-2.8,2.8H26.9c-1.5,0-2.8-1.2-2.8-2.8v0
							C24.1,44.8,25.3,43.6,26.9,43.6z"/>
					</g>
					<g>
						<path id="path-10_2_" class="st3" d="M26.9,43.6h13.1c1.5,0,2.8,1.2,2.8,2.8v0c0,1.5-1.2,2.8-2.8,2.8H26.9
							c-1.5,0-2.8-1.2-2.8-2.8v0C24.1,44.8,25.3,43.6,26.9,43.6z"/>
					</g>
				</g>
				<g id="Rectangle-Copy-30">
					<g>
						
							<linearGradient id="path-13_3_" gradientUnits="userSpaceOnUse" x1="1.7525" y1="93.4869" x2="1.7525" y2="92.4869" gradientTransform="matrix(11.1781 0 0 -5.5708 10.0868 553.2192)">
							<stop  offset="0" style="stop-color:#FDEB86"/>
							<stop  offset="1" style="stop-color:#F9724E"/>
						</linearGradient>
						<path id="path-13" class="st10" d="M26.9,32.4h5.6c1.5,0,2.8,1.2,2.8,2.8l0,0c0,1.5-1.2,2.8-2.8,2.8h-5.6
							c-1.5,0-2.8-1.2-2.8-2.8l0,0C24.1,33.7,25.3,32.4,26.9,32.4z"/>
					</g>
					<g class="st11">
						<path id="path-13_4_" d="M26.9,32.4h5.6c1.5,0,2.8,1.2,2.8,2.8l0,0c0,1.5-1.2,2.8-2.8,2.8h-5.6c-1.5,0-2.8-1.2-2.8-2.8l0,0
							C24.1,33.7,25.3,32.4,26.9,32.4z"/>
					</g>
					<g>
						<path id="path-13_2_" class="st3" d="M26.9,32.4h5.6c1.5,0,2.8,1.2,2.8,2.8l0,0c0,1.5-1.2,2.8-2.8,2.8h-5.6
							c-1.5,0-2.8-1.2-2.8-2.8l0,0C24.1,33.7,25.3,32.4,26.9,32.4z"/>
					</g>
				</g>
				<g id="Combined-Shape">
					<g>
						
							<linearGradient id="path-16_3_" gradientUnits="userSpaceOnUse" x1="0.8955" y1="95.6045" x2="0.8955" y2="94.6045" gradientTransform="matrix(35.3973 0 0 -35.3973 28.9452 3399.7944)">
							<stop  offset="0" style="stop-color:#FDEB86"/>
							<stop  offset="1" style="stop-color:#F9724E"/>
						</linearGradient>
						<path id="path-16" class="st12" d="M60.6,15.7v17.7h17.7c0,9.8-7.9,17.7-17.7,17.7s-17.7-7.9-17.7-17.7S50.9,15.7,60.6,15.7z"
							/>
					</g>
					<g class="st13">
						<path id="path-16_4_" d="M60.6,15.7v17.7h17.7c0,9.8-7.9,17.7-17.7,17.7s-17.7-7.9-17.7-17.7S50.9,15.7,60.6,15.7z"/>
					</g>
					<g>
						<path id="path-16_2_" class="st3" d="M60.6,15.7v17.7h17.7c0,9.8-7.9,17.7-17.7,17.7s-17.7-7.9-17.7-17.7S50.9,15.7,60.6,15.7
							z"/>
					</g>
				</g>
			</g>
			<g id="Combined-Shape_1_">
				<g>
					
						<linearGradient id="path-18_3_" gradientUnits="userSpaceOnUse" x1="19.8955" y1="111.6045" x2="19.8955" y2="110.6045" gradientTransform="matrix(35.3973 0 0 -35.3973 -619.9452 3977.4929)">
						<stop  offset="0" style="stop-color:#FDEB86"/>
						<stop  offset="1" style="stop-color:#F9724E"/>
					</linearGradient>
					<path id="path-18" class="st14" d="M84.3,27v17.7H102c0,9.8-7.9,17.7-17.7,17.7s-17.7-7.9-17.7-17.7S74.5,27,84.3,27z"/>
				</g>
				<g class="st15">
					<path id="path-18_4_" d="M84.3,27v17.7H102c0,9.8-7.9,17.7-17.7,17.7s-17.7-7.9-17.7-17.7S74.5,27,84.3,27z"/>
				</g>
				<g>
					<path id="path-18_2_" class="st3" d="M84.3,27v17.7H102c0,9.8-7.9,17.7-17.7,17.7s-17.7-7.9-17.7-17.7S74.5,27,84.3,27z"/>
				</g>
			</g>
		</g>
	</g>
</g>
</svg>
