<?xml version="1.0" encoding="utf-8"?>
<!-- Generator: Adobe Illustrator 22.1.0, SVG Export Plug-In . SVG Version: 6.00 Build 0)  -->
<svg version="1.1" id="Layer_1" xmlns="http://www.w3.org/2000/svg" xmlns:xlink="http://www.w3.org/1999/xlink" x="0px" y="0px"
	 viewBox="0 0 100 100" style="enable-background:new 0 0 100 100;" xml:space="preserve">
<style type="text/css">
	.st0{fill:none;}
	.st1{fill:url(#path-2_3_);}
	.st2{filter:url(#filter-3);}
	.st3{fill:none;stroke:#000000;stroke-width:2;}
	.st4{fill:url(#path-5_3_);}
	.st5{filter:url(#filter-6);}
	.st6{fill:url(#path-8_3_);}
	.st7{filter:url(#filter-9);}
	.st8{fill:url(#path-10_3_);}
	.st9{filter:url(#filter-11);}
</style>
<filter  filterUnits="objectBoundingBox" height="142.5%" id="filter-9" width="136.3%" x="-18.1%" y="-23.8%">
	<feOffset  dx="3" dy="4" in="SourceAlpha" result="shadowOffsetInner1"></feOffset>
	<feComposite  in="shadowOffsetInner1" in2="SourceAlpha" k2="-1" k3="1" operator="arithmetic" result="shadowInnerInner1">
		</feComposite>
	<feColorMatrix  in="shadowInnerInner1" type="matrix" values="0 0 0 0 1   0 0 0 0 1   0 0 0 0 1  0 0 0 0.3 0"></feColorMatrix>
</filter>
<filter  filterUnits="objectBoundingBox" height="127.3%" id="filter-6" width="127.3%" x="-13.6%" y="-13.6%">
	<feOffset  dx="3" dy="4" in="SourceAlpha" result="shadowOffsetInner1"></feOffset>
	<feComposite  in="shadowOffsetInner1" in2="SourceAlpha" k2="-1" k3="1" operator="arithmetic" result="shadowInnerInner1">
		</feComposite>
	<feColorMatrix  in="shadowInnerInner1" type="matrix" values="0 0 0 0 1   0 0 0 0 1   0 0 0 0 1  0 0 0 0.3 0"></feColorMatrix>
</filter>
<filter  filterUnits="objectBoundingBox" height="110.7%" id="filter-3" width="110.7%" x="-5.4%" y="-5.4%">
	<feOffset  dx="4" dy="3" in="SourceAlpha" result="shadowOffsetInner1"></feOffset>
	<feComposite  in="shadowOffsetInner1" in2="SourceAlpha" k2="-1" k3="1" operator="arithmetic" result="shadowInnerInner1">
		</feComposite>
	<feColorMatrix  in="shadowInnerInner1" type="matrix" values="0 0 0 0 1   0 0 0 0 1   0 0 0 0 1  0 0 0 0.304605551 0">
		</feColorMatrix>
</filter>
<filter  filterUnits="objectBoundingBox" height="142.5%" id="filter-11" width="136.3%" x="-18.1%" y="-23.8%">
	<feOffset  dx="3" dy="4" in="SourceAlpha" result="shadowOffsetInner1"></feOffset>
	<feComposite  in="shadowOffsetInner1" in2="SourceAlpha" k2="-1" k3="1" operator="arithmetic" result="shadowInnerInner1">
		</feComposite>
	<feColorMatrix  in="shadowInnerInner1" type="matrix" values="0 0 0 0 1   0 0 0 0 1   0 0 0 0 1  0 0 0 0.3 0"></feColorMatrix>
</filter>
<title>Transactions</title>
<desc>Created with Sketch.</desc>
<g id="Page-1">
	<g id="Icons" transform="translate(-770.000000, -450.000000)">
		<g id="Transactions" transform="translate(749.000000, 440.000000)">
			<rect id="Rectangle-Copy-27" x="21" y="9.5" class="st0" width="100" height="100"/>
			<g id="Group-13" transform="translate(22.000000, 12.000000)">
				<g id="Oval">
					<g>
						
							<linearGradient id="path-2_3_" gradientUnits="userSpaceOnUse" x1="0.8571" y1="97.3393" x2="0.8571" y2="98.3393" gradientTransform="matrix(56 0 0 -56 1 5526.5)">
							<stop  offset="0" style="stop-color:#D763FF"/>
							<stop  offset="1" style="stop-color:#8B64FA"/>
						</linearGradient>
						<circle id="path-2" class="st1" cx="49" cy="47.5" r="28"/>
					</g>
					<g class="st2">
						<circle id="path-2_4_" cx="49" cy="47.5" r="28"/>
					</g>
					<g>
						<circle id="path-2_2_" class="st3" cx="49" cy="47.5" r="28"/>
					</g>
				</g>
				<g id="Oval_1_">
					<g>
						
							<linearGradient id="path-5_3_" gradientUnits="userSpaceOnUse" x1="1.4091" y1="98.0909" x2="1.4091" y2="97.0909" gradientTransform="matrix(22 0 0 -22 18 2194.5)">
							<stop  offset="0" style="stop-color:#FDEB86"/>
							<stop  offset="1" style="stop-color:#F9724E"/>
						</linearGradient>
						<circle id="path-5" class="st4" cx="49" cy="47.5" r="11"/>
					</g>
					<g class="st5">
						<circle id="path-5_4_" cx="49" cy="47.5" r="11"/>
					</g>
					<g>
						<circle id="path-5_2_" class="st3" cx="49" cy="47.5" r="11"/>
					</g>
				</g>
				<path id="_x24_" d="M50.4,54.3h-1.5v-1.6c-2.1-0.3-3.1-1.8-3.2-3.1l1.9-0.5c0.1,0.9,0.7,1.8,2.1,1.8c1,0,1.5-0.5,1.5-1.1
					c0-0.5-0.4-0.9-1.1-1.1l-1.4-0.3C47,48.1,46,47.1,46,45.6c0-1.6,1.2-2.8,2.8-3V41h1.5v1.6c1.7,0.3,2.5,1.5,2.7,2.5l-1.8,0.5
					c-0.1-0.5-0.5-1.4-1.7-1.4c-1,0-1.5,0.6-1.5,1.2c0,0.5,0.3,0.9,1,1l1.4,0.3c1.9,0.4,2.7,1.5,2.7,2.9c0,1.4-1,2.7-2.8,2.9V54.3z"
					/>
				<g id="Triangle" transform="translate(27.000000, 11.000000) rotate(-90.000000) translate(-27.000000, -11.000000) ">
					<g>
						
							<linearGradient id="path-8_3_" gradientUnits="userSpaceOnUse" x1="-59.25" y1="-15.9219" x2="-59.25" y2="-14.9219" gradientTransform="matrix(0 16 21.3333 0 357.1667 972)">
							<stop  offset="0" style="stop-color:#FDEB86"/>
							<stop  offset="1" style="stop-color:#F9724E"/>
						</linearGradient>
						<polygon id="path-8" class="st6" points="17.5,24 28.2,40 16.8,40 6.8,40 						"/>
					</g>
					<g class="st7">
						<polygon id="path-8_4_" points="17.5,24 28.2,40 16.8,40 6.8,40 						"/>
					</g>
					<g>
						<polygon id="path-8_2_" class="st3" points="17.5,24 28.2,40 16.8,40 6.8,40 						"/>
					</g>
				</g>
				<g id="Triangle-Copy-2" transform="translate(28.000000, 66.000000) rotate(-270.000000) translate(-28.000000, -66.000000) ">
					<g>
						
							<linearGradient id="path-10_3_" gradientUnits="userSpaceOnUse" x1="61.75" y1="93.0781" x2="61.75" y2="94.0781" gradientTransform="matrix(0 -16 -21.3333 0 2023.1667 1025)">
							<stop  offset="0" style="stop-color:#FDEB86"/>
							<stop  offset="1" style="stop-color:#F9724E"/>
						</linearGradient>
						<polygon id="path-10" class="st8" points="37.5,37 48.2,53 36.8,53 26.8,53 						"/>
					</g>
					<g class="st9">
						<polygon id="path-10_4_" points="37.5,37 48.2,53 36.8,53 26.8,53 						"/>
					</g>
					<g>
						<polygon id="path-10_2_" class="st3" points="37.5,37 48.2,53 36.8,53 26.8,53 						"/>
					</g>
				</g>
			</g>
		</g>
	</g>
</g>
</svg>
