<?xml version="1.0" encoding="utf-8"?>
<!-- Generator: Adobe Illustrator 22.1.0, SVG Export Plug-In . SVG Version: 6.00 Build 0)  -->
<svg version="1.1" id="Layer_1" xmlns="http://www.w3.org/2000/svg" xmlns:xlink="http://www.w3.org/1999/xlink" x="0px" y="0px"
	 viewBox="0 0 100 100" style="enable-background:new 0 0 100 100;" xml:space="preserve">
<style type="text/css">
	.st0{fill:none;}
	.st1{fill:url(#path-2_3_);}
	.st2{filter:url(#filter-3);}
	.st3{fill:none;stroke:#000000;stroke-width:2;}
	.st4{fill:url(#path-4_3_);}
	.st5{filter:url(#filter-5);}
	.st6{fill:url(#path-7_3_);}
	.st7{filter:url(#filter-8);}
	.st8{fill:url(#path-10_3_);}
	.st9{filter:url(#filter-11);}
	.st10{fill:url(#path-12_3_);}
	.st11{filter:url(#filter-13);}
</style>
<filter  filterUnits="objectBoundingBox" height="142.9%" id="filter-8" width="120.7%" x="-10.3%" y="-21.4%">
	<feOffset  dx="4" dy="3" in="SourceAlpha" result="shadowOffsetInner1"></feOffset>
	<feComposite  in="shadowOffsetInner1" in2="SourceAlpha" k2="-1" k3="1" operator="arithmetic" result="shadowInnerInner1">
		</feComposite>
	<feColorMatrix  in="shadowInnerInner1" type="matrix" values="0 0 0 0 1   0 0 0 0 1   0 0 0 0 1  0 0 0 0.304605551 0">
		</feColorMatrix>
</filter>
<filter  filterUnits="objectBoundingBox" height="156.7%" id="filter-5" width="148.4%" x="-24.2%" y="-31.7%">
	<feOffset  dx="3" dy="4" in="SourceAlpha" result="shadowOffsetInner1"></feOffset>
	<feComposite  in="shadowOffsetInner1" in2="SourceAlpha" k2="-1" k3="1" operator="arithmetic" result="shadowInnerInner1">
		</feComposite>
	<feColorMatrix  in="shadowInnerInner1" type="matrix" values="0 0 0 0 1   0 0 0 0 1   0 0 0 0 1  0 0 0 0.3 0"></feColorMatrix>
</filter>
<filter  filterUnits="objectBoundingBox" height="156.7%" id="filter-3" width="148.4%" x="-24.2%" y="-31.7%">
	<feOffset  dx="3" dy="4" in="SourceAlpha" result="shadowOffsetInner1"></feOffset>
	<feComposite  in="shadowOffsetInner1" in2="SourceAlpha" k2="-1" k3="1" operator="arithmetic" result="shadowInnerInner1">
		</feComposite>
	<feColorMatrix  in="shadowInnerInner1" type="matrix" values="0 0 0 0 1   0 0 0 0 1   0 0 0 0 1  0 0 0 0.3 0"></feColorMatrix>
</filter>
<filter  filterUnits="objectBoundingBox" height="142.9%" id="filter-13" width="120.7%" x="-10.3%" y="-21.4%">
	<feOffset  dx="4" dy="3" in="SourceAlpha" result="shadowOffsetInner1"></feOffset>
	<feComposite  in="shadowOffsetInner1" in2="SourceAlpha" k2="-1" k3="1" operator="arithmetic" result="shadowInnerInner1">
		</feComposite>
	<feColorMatrix  in="shadowInnerInner1" type="matrix" values="0 0 0 0 1   0 0 0 0 1   0 0 0 0 1  0 0 0 0.304605551 0">
		</feColorMatrix>
</filter>
<filter  filterUnits="objectBoundingBox" height="142.9%" id="filter-11" width="120.7%" x="-10.3%" y="-21.4%">
	<feOffset  dx="3" dy="4" in="SourceAlpha" result="shadowOffsetInner1"></feOffset>
	<feComposite  in="shadowOffsetInner1" in2="SourceAlpha" k2="-1" k3="1" operator="arithmetic" result="shadowInnerInner1">
		</feComposite>
	<feColorMatrix  in="shadowInnerInner1" type="matrix" values="0 0 0 0 1   0 0 0 0 1   0 0 0 0 1  0 0 0 0.3 0"></feColorMatrix>
</filter>
<title>system configs copy</title>
<desc>Created with Sketch.</desc>
<g id="Page-1">
	<g id="Icons" transform="translate(-148.000000, -703.000000)">
		<g id="system-configs-copy" transform="translate(130.000000, 686.000000)">
			<rect id="Rectangle-Copy-27" x="16.5" y="16" class="st0" width="100" height="100"/>
			<g id="Triangle" transform="translate(78.000000, 27.666667) rotate(-90.000000) translate(-78.000000, -27.666667) ">
				<g>
					
						<linearGradient id="path-2_3_" gradientUnits="userSpaceOnUse" x1="-11" y1="-32.2708" x2="-11" y2="-31.2708" gradientTransform="matrix(0 12 16 0 578.3333 170.1666)">
						<stop  offset="0" style="stop-color:#FDEB86"/>
						<stop  offset="1" style="stop-color:#F9724E"/>
					</linearGradient>
					<polygon id="path-2" class="st1" points="62,38.2 70,50.2 61.5,50.2 54,50.2 					"/>
				</g>
				<g class="st2">
					<polygon id="path-2_4_" points="62,38.2 70,50.2 61.5,50.2 54,50.2 					"/>
				</g>
				<g>
					<polygon id="path-2_2_" class="st3" points="62,38.2 70,50.2 61.5,50.2 54,50.2 					"/>
				</g>
			</g>
			<g id="Triangle-Copy-4" transform="translate(25.000000, 75.000000) rotate(-270.000000) translate(-25.000000, -75.000000) ">
				<g>
					
						<linearGradient id="path-4_3_" gradientUnits="userSpaceOnUse" x1="69.3333" y1="80.0625" x2="69.3333" y2="81.0625" gradientTransform="matrix(0 -12 -16 0 1322 884.5)">
						<stop  offset="0" style="stop-color:#FDEB86"/>
						<stop  offset="1" style="stop-color:#F9724E"/>
					</linearGradient>
					<polygon id="path-4" class="st4" points="41,52.5 49,64.5 40.5,64.5 33,64.5 					"/>
				</g>
				<g class="st5">
					<polygon id="path-4_4_" points="41,52.5 49,64.5 40.5,64.5 33,64.5 					"/>
				</g>
				<g>
					<polygon id="path-4_2_" class="st3" points="41,52.5 49,64.5 40.5,64.5 33,64.5 					"/>
				</g>
			</g>
			<g id="Group-12" transform="translate(37.000000, 21.000000)">
				<g id="Rectangle-Copy-32">
					<g>
						
							<linearGradient id="path-7_3_" gradientUnits="userSpaceOnUse" x1="-17.4483" y1="94.9286" x2="-17.4483" y2="95.9286" gradientTransform="matrix(29 0 0 -14 537 1359)">
							<stop  offset="0" style="stop-color:#D763FF"/>
							<stop  offset="1" style="stop-color:#8B64FA"/>
						</linearGradient>
						<path id="path-7" class="st6" d="M23.5,16h15c3.9,0,7,3.1,7,7l0,0c0,3.9-3.1,7-7,7h-15c-3.9,0-7-3.1-7-7l0,0
							C16.5,19.1,19.6,16,23.5,16z"/>
					</g>
					<g class="st7">
						<path id="path-7_4_" d="M23.5,16h15c3.9,0,7,3.1,7,7l0,0c0,3.9-3.1,7-7,7h-15c-3.9,0-7-3.1-7-7l0,0C16.5,19.1,19.6,16,23.5,16
							z"/>
					</g>
					<g>
						<path id="path-7_2_" class="st3" d="M23.5,16h15c3.9,0,7,3.1,7,7l0,0c0,3.9-3.1,7-7,7h-15c-3.9,0-7-3.1-7-7l0,0
							C16.5,19.1,19.6,16,23.5,16z"/>
					</g>
				</g>
				<g id="Rectangle-Copy-33">
					<g>
						
							<linearGradient id="path-10_3_" gradientUnits="userSpaceOnUse" x1="-17.4483" y1="95.9286" x2="-17.4483" y2="94.9286" gradientTransform="matrix(29 0 0 -14 537 1383)">
							<stop  offset="0" style="stop-color:#FDEB86"/>
							<stop  offset="1" style="stop-color:#F9724E"/>
						</linearGradient>
						<path id="path-10" class="st8" d="M23.5,40h15c3.9,0,7,3.1,7,7l0,0c0,3.9-3.1,7-7,7h-15c-3.9,0-7-3.1-7-7l0,0
							C16.5,43.1,19.6,40,23.5,40z"/>
					</g>
					<g class="st9">
						<path id="path-10_4_" d="M23.5,40h15c3.9,0,7,3.1,7,7l0,0c0,3.9-3.1,7-7,7h-15c-3.9,0-7-3.1-7-7l0,0
							C16.5,43.1,19.6,40,23.5,40z"/>
					</g>
					<g>
						<path id="path-10_2_" class="st3" d="M23.5,40h15c3.9,0,7,3.1,7,7l0,0c0,3.9-3.1,7-7,7h-15c-3.9,0-7-3.1-7-7l0,0
							C16.5,43.1,19.6,40,23.5,40z"/>
					</g>
				</g>
				<g id="Rectangle-Copy-35">
					<g>
						
							<linearGradient id="path-12_3_" gradientUnits="userSpaceOnUse" x1="-17.4483" y1="94.9286" x2="-17.4483" y2="95.9286" gradientTransform="matrix(29 0 0 -14 537 1406)">
							<stop  offset="0" style="stop-color:#D763FF"/>
							<stop  offset="1" style="stop-color:#8B64FA"/>
						</linearGradient>
						<path id="path-12" class="st10" d="M23.5,63h15c3.9,0,7,3.1,7,7l0,0c0,3.9-3.1,7-7,7h-15c-3.9,0-7-3.1-7-7l0,0
							C16.5,66.1,19.6,63,23.5,63z"/>
					</g>
					<g class="st11">
						<path id="path-12_4_" d="M23.5,63h15c3.9,0,7,3.1,7,7l0,0c0,3.9-3.1,7-7,7h-15c-3.9,0-7-3.1-7-7l0,0
							C16.5,66.1,19.6,63,23.5,63z"/>
					</g>
					<g>
						<path id="path-12_2_" class="st3" d="M23.5,63h15c3.9,0,7,3.1,7,7l0,0c0,3.9-3.1,7-7,7h-15c-3.9,0-7-3.1-7-7l0,0
							C16.5,66.1,19.6,63,23.5,63z"/>
					</g>
				</g>
			</g>
			<polyline id="Path-3-Copy" class="st3" points="44.5,83 44.5,69 49.5,69 			"/>
			<polyline id="Path-3-Copy-2" class="st3" points="91.5,53 91.5,67 86.5,67 			"/>
		</g>
	</g>
</g>
</svg>
