<?xml version="1.0" encoding="utf-8"?>
<!-- Generator: Adobe Illustrator 22.1.0, SVG Export Plug-In . SVG Version: 6.00 Build 0)  -->
<svg version="1.1" id="Layer_1" xmlns="http://www.w3.org/2000/svg" xmlns:xlink="http://www.w3.org/1999/xlink" x="0px" y="0px"
	 viewBox="0 0 100 100" style="enable-background:new 0 0 100 100;" xml:space="preserve">
<style type="text/css">
	.st0{fill:none;}
	.st1{fill:url(#path-2_3_);}
	.st2{filter:url(#filter-3);}
	.st3{fill:none;stroke:#000000;stroke-width:2;}
	.st4{fill:url(#path-5_3_);}
	.st5{filter:url(#filter-6);}
	.st6{fill:url(#path-8_3_);}
	.st7{filter:url(#filter-9);}
	.st8{fill:url(#path-11_3_);}
	.st9{filter:url(#filter-12);}
</style>
<filter  filterUnits="objectBoundingBox" height="185.7%" id="filter-9" width="139.2%" x="-19.6%" y="-42.9%">
	<feOffset  dx="3" dy="4" in="SourceAlpha" result="shadowOffsetInner1"></feOffset>
	<feComposite  in="shadowOffsetInner1" in2="SourceAlpha" k2="-1" k3="1" operator="arithmetic" result="shadowInnerInner1">
		</feComposite>
	<feColorMatrix  in="shadowInnerInner1" type="matrix" values="0 0 0 0 1   0 0 0 0 1   0 0 0 0 1  0 0 0 0.3 0"></feColorMatrix>
</filter>
<filter  filterUnits="objectBoundingBox" height="200.0%" id="filter-6" width="131.6%" x="-15.8%" y="-50.0%">
	<feOffset  dx="3" dy="4" in="SourceAlpha" result="shadowOffsetInner1"></feOffset>
	<feComposite  in="shadowOffsetInner1" in2="SourceAlpha" k2="-1" k3="1" operator="arithmetic" result="shadowInnerInner1">
		</feComposite>
	<feColorMatrix  in="shadowInnerInner1" type="matrix" values="0 0 0 0 1   0 0 0 0 1   0 0 0 0 1  0 0 0 0.3 0"></feColorMatrix>
</filter>
<filter  filterUnits="objectBoundingBox" height="112.3%" id="filter-3" width="110.7%" x="-5.4%" y="-6.2%">
	<feOffset  dx="4" dy="3" in="SourceAlpha" result="shadowOffsetInner1"></feOffset>
	<feComposite  in="shadowOffsetInner1" in2="SourceAlpha" k2="-1" k3="1" operator="arithmetic" result="shadowInnerInner1">
		</feComposite>
	<feColorMatrix  in="shadowInnerInner1" type="matrix" values="0 0 0 0 1   0 0 0 0 1   0 0 0 0 1  0 0 0 0.304605551 0">
		</feColorMatrix>
</filter>
<filter  filterUnits="objectBoundingBox" height="128.6%" id="filter-12" width="128.6%" x="-14.3%" y="-14.3%">
	<feOffset  dx="3" dy="4" in="SourceAlpha" result="shadowOffsetInner1"></feOffset>
	<feComposite  in="shadowOffsetInner1" in2="SourceAlpha" k2="-1" k3="1" operator="arithmetic" result="shadowInnerInner1">
		</feComposite>
	<feColorMatrix  in="shadowInnerInner1" type="matrix" values="0 0 0 0 1   0 0 0 0 1   0 0 0 0 1  0 0 0 0.3 0"></feColorMatrix>
</filter>
<title>notifications</title>
<desc>Created with Sketch.</desc>
<g id="Page-1">
	<g id="Icons" transform="translate(-1080.000000, -215.000000)">
		<g id="notifications" transform="translate(1058.000000, 194.000000)">
			<rect id="Rectangle-Copy-27" x="21" y="19.5" class="st0" width="100" height="100"/>
			<g id="Group-12" transform="translate(23.000000, 22.000000)">
				<g id="bell" transform="translate(0.000000, 3.000000)">
					<g id="Path">
						<g>
							
								<linearGradient id="path-2_3_" gradientUnits="userSpaceOnUse" x1="0.8574" y1="95.1104" x2="0.8574" y2="96.1104" gradientTransform="matrix(55.9524 0 0 -48.7722 1.0238 4707.0137)">
								<stop  offset="0" style="stop-color:#D763FF"/>
								<stop  offset="1" style="stop-color:#8B64FA"/>
							</linearGradient>
							<path id="path-2" class="st1" d="M49,19.5c-10.3,0-18.7,8.1-18.7,18c0,21-9.3,21.9-9.3,27s56,4.9,56,0s-9.3-6-9.3-27
								C67.7,27.6,59.3,19.5,49,19.5z"/>
						</g>
						<g class="st2">
							<path id="path-2_4_" d="M49,19.5c-10.3,0-18.7,8.1-18.7,18c0,21-9.3,21.9-9.3,27s56,4.9,56,0s-9.3-6-9.3-27
								C67.7,27.6,59.3,19.5,49,19.5z"/>
						</g>
						<g>
							<path id="path-2_2_" class="st3" d="M49,19.5c-10.3,0-18.7,8.1-18.7,18c0,21-9.3,21.9-9.3,27s56,4.9,56,0s-9.3-6-9.3-27
								C67.7,27.6,59.3,19.5,49,19.5z"/>
						</g>
					</g>
					<g id="Rectangle">
						<g>
							
								<linearGradient id="path-5_3_" gradientUnits="userSpaceOnUse" x1="1.5526" y1="93.3333" x2="1.5526" y2="92.3333" gradientTransform="matrix(19 0 0 -6 20 601.5)">
								<stop  offset="0" style="stop-color:#FDEB86"/>
								<stop  offset="1" style="stop-color:#F9724E"/>
							</linearGradient>
							<path id="path-5" class="st4" d="M43,41.5h13c1.7,0,3,1.3,3,3l0,0c0,1.7-1.3,3-3,3H43c-1.7,0-3-1.3-3-3l0,0
								C40,42.8,41.3,41.5,43,41.5z"/>
						</g>
						<g class="st5">
							<path id="path-5_4_" d="M43,41.5h13c1.7,0,3,1.3,3,3l0,0c0,1.7-1.3,3-3,3H43c-1.7,0-3-1.3-3-3l0,0C40,42.8,41.3,41.5,43,41.5
								z"/>
						</g>
						<g>
							<path id="path-5_2_" class="st3" d="M43,41.5h13c1.7,0,3,1.3,3,3l0,0c0,1.7-1.3,3-3,3H43c-1.7,0-3-1.3-3-3l0,0
								C40,42.8,41.3,41.5,43,41.5z"/>
						</g>
					</g>
					<g id="Path_1_">
						<g>
							
								<linearGradient id="path-8_3_" gradientUnits="userSpaceOnUse" x1="1.6163" y1="93.7857" x2="1.6163" y2="92.7857" gradientTransform="matrix(17.9157 0 0 -7 20.0422 724.7833)">
								<stop  offset="0" style="stop-color:#FDEB86"/>
								<stop  offset="1" style="stop-color:#F9724E"/>
							</linearGradient>
							<path id="path-8" class="st6" d="M58,68.3c-1.9,4.3-4.8,7-9,7s-7.1-2.7-9-7H58z"/>
						</g>
						<g class="st7">
							<path id="path-8_4_" d="M58,68.3c-1.9,4.3-4.8,7-9,7s-7.1-2.7-9-7H58z"/>
						</g>
						<g>
							<path id="path-8_2_" class="st3" d="M58,68.3c-1.9,4.3-4.8,7-9,7s-7.1-2.7-9-7H58z"/>
						</g>
					</g>
				</g>
				<g id="Oval">
					<g>
						
							<linearGradient id="path-11_3_" gradientUnits="userSpaceOnUse" x1="1.4524" y1="98.5952" x2="1.4524" y2="97.5952" gradientTransform="matrix(21 0 0 -21 31 2090)">
							<stop  offset="0" style="stop-color:#FDEB86"/>
							<stop  offset="1" style="stop-color:#F9724E"/>
						</linearGradient>
						<circle id="path-11" class="st8" cx="61.5" cy="30" r="10.5"/>
					</g>
					<g class="st9">
						<circle id="path-11_4_" cx="61.5" cy="30" r="10.5"/>
					</g>
					<g>
						<circle id="path-11_2_" class="st3" cx="61.5" cy="30" r="10.5"/>
					</g>
				</g>
			</g>
		</g>
	</g>
</g>
</svg>
