<?xml version="1.0" encoding="utf-8"?>
<!-- Generator: Adobe Illustrator 22.1.0, SVG Export Plug-In . SVG Version: 6.00 Build 0)  -->
<svg version="1.1" id="Layer_1" xmlns="http://www.w3.org/2000/svg" xmlns:xlink="http://www.w3.org/1999/xlink" x="0px" y="0px"
	 viewBox="0 0 8 14" style="enable-background:new 0 0 8 14;" xml:space="preserve">
<style type="text/css">
	.st0{fill:#404553;stroke:#404553;stroke-width:0.8;}
</style>
<title>right-arrow-circular-button</title>
<desc>Created with Sketch.</desc>
<g id="Case-Study">
	<g id="UX-Case-Study" transform="translate(-876.000000, -8367.000000)">
		
			<g id="right-arrow-circular-button" transform="translate(879.823529, 8373.500000) scale(-1, 1) translate(-879.823529, -8373.500000) translate(876.000000, 8367.000000)">
			<path id="Path" class="st0" d="M0.9,12.8c-0.2,0-0.4-0.1-0.5-0.4s0-0.5,0.1-0.6l5.2-5.2L0.5,1.5c-0.2-0.2-0.2-0.6,0-0.8
				s0.6-0.2,0.8,0l5.6,5.6C7,6.3,7.1,6.5,7.1,6.6C7.1,6.8,7,6.9,6.9,7l-5.6,5.6C1.2,12.7,1.1,12.8,0.9,12.8L0.9,12.8z"/>
		</g>
	</g>
</g>
</svg>
