<?xml version="1.0" encoding="utf-8"?>
<!-- Generator: Adobe Illustrator 22.1.0, SVG Export Plug-In . SVG Version: 6.00 Build 0)  -->
<svg version="1.1" id="Layer_1" xmlns="http://www.w3.org/2000/svg" xmlns:xlink="http://www.w3.org/1999/xlink" x="0px" y="0px"
	 viewBox="0 0 173 28" style="enable-background:new 0 0 173 28;" xml:space="preserve">
<style type="text/css">
	.st0{fill:#FFFFFF;}
	.st1{fill:#FFCC01;}
</style>
<path class="st0" d="M1.9,21.1l2-1.2c1.4,2.6,3,3.8,4.8,3.8c0.8,0,1.5-0.2,2.2-0.5c0.7-0.4,1.2-0.8,1.6-1.5c0.4-0.6,0.5-1.3,0.5-1.9
	c0-0.8-0.3-1.5-0.8-2.3c-0.7-1-2.1-2.3-4-3.7c-1.9-1.5-3.1-2.5-3.6-3.2C3.8,9.5,3.4,8.4,3.4,7.1c0-1,0.2-1.9,0.7-2.8
	c0.5-0.8,1.2-1.5,2-2C7,1.9,8,1.6,9,1.6c1.1,0,2.1,0.3,3.1,0.8c1,0.5,2,1.5,3,3l-1.9,1.4C12.4,5.7,11.6,5,11,4.6C10.4,4.2,9.7,4,9,4
	C8,4,7.3,4.3,6.7,4.9C6.1,5.5,5.8,6.2,5.8,7c0,0.5,0.1,1,0.3,1.5c0.2,0.5,0.6,1,1.2,1.5c0.3,0.3,1.3,1.1,3,2.3c2,1.5,3.4,2.8,4.1,4
	c0.7,1.2,1.1,2.3,1.1,3.5c0,1.7-0.6,3.1-1.9,4.4c-1.3,1.2-2.8,1.9-4.7,1.9c-1.4,0-2.7-0.4-3.8-1.1C4,24.1,2.9,22.9,1.9,21.1z"/>
<path class="st0" d="M18.6,2.2h2.7l5.9,9.6L33,2.2h2.7l-7.4,12.1v11.1h-2.3V14.3L18.6,2.2z"/>
<path class="st0" d="M59.1,2.1h4.6c2.7,0,4.5,0.1,5.4,0.3c1.3,0.3,2.4,1,3.3,2c0.8,1,1.3,2.3,1.3,3.8c0,1.6-0.4,2.8-1.2,3.8
	c-0.8,1-2,1.7-3.4,2c-1.1,0.3-3,0.4-5.9,0.4h-1.7v10.8h-2.3V2.1z M61.5,4.4v7.8l3.9,0c1.6,0,2.7-0.1,3.5-0.4
	c0.7-0.3,1.3-0.8,1.7-1.4c0.4-0.6,0.6-1.4,0.6-2.1c0-0.8-0.2-1.5-0.6-2.1c-0.4-0.6-1-1.1-1.7-1.4c-0.7-0.3-1.8-0.4-3.4-0.4H61.5z"/>
<path class="st0" d="M78.2,2.1h2.3V12h11.8V2.1h2.3v23.2h-2.3V14.1H80.5v11.2h-2.3V2.1z"/>
<path class="st1" d="M111.4,1.6c3.5,0,6.5,1.2,8.8,3.5c2.4,2.3,3.6,5.2,3.6,8.7c0,3.4-1.2,6.3-3.5,8.6c-2.4,2.4-5.2,3.5-8.6,3.5
	c-3.4,0-6.3-1.2-8.7-3.5c-2.4-2.4-3.6-5.2-3.6-8.6c0-2.2,0.5-4.3,1.6-6.2c1.1-1.9,2.5-3.4,4.4-4.5C107.2,2.2,109.2,1.6,111.4,1.6z
	 M111.5,3.9c-1.7,0-3.3,0.4-4.9,1.3c-1.5,0.9-2.7,2.1-3.6,3.6c-0.9,1.5-1.3,3.2-1.3,5.1c0,2.8,1,5.1,2.9,7c1.9,1.9,4.2,2.8,6.9,2.8
	c1.8,0,3.5-0.4,5-1.3c1.5-0.9,2.7-2.1,3.6-3.6c0.9-1.5,1.3-3.2,1.3-5.1c0-1.8-0.4-3.5-1.3-5c-0.9-1.5-2.1-2.7-3.6-3.6
	C114.9,4.3,113.3,3.9,111.5,3.9z"/>
<path class="st1" d="M128,2.1h2.3v23.2H128V2.1z"/>
<path class="st0" d="M152.5,2.1h2.7l6,9.6l5.9-9.6h2.7l-7.5,12.1v11.1h-2.3V14.2L152.5,2.1z"/>
<polygon class="st0" points="146.6,2.1 146.6,19.9 133.9,5.4 133.9,8.8 148.4,25.3 148.9,25.3 148.9,2.1 "/>
<polygon class="st0" points="51.3,2.1 50.9,2.1 41.5,21.1 35.9,9.8 35.3,13.4 41.2,25.3 41.8,25.3 50,8.7 52.3,25.3 54.6,25.3 "/>
</svg>
