<?xml version="1.0" encoding="utf-8"?>
<!-- Generator: Adobe Illustrator 22.1.0, SVG Export Plug-In . SVG Version: 6.00 Build 0)  -->
<svg version="1.1" id="Layer_1" xmlns="http://www.w3.org/2000/svg" xmlns:xlink="http://www.w3.org/1999/xlink" x="0px" y="0px"
	 viewBox="0 0 103 20" style="enable-background:new 0 0 103 20;" xml:space="preserve">
<style type="text/css">
	.st0{fill:#2E3188;}
	.st1{fill:#FFCC01;}
</style>
<path class="st0" d="M0.5,14l1.2-0.7c0.8,1.6,1.8,2.3,2.9,2.3c0.5,0,0.9-0.1,1.3-0.3c0.4-0.2,0.7-0.5,0.9-0.9
	c0.2-0.4,0.3-0.8,0.3-1.2c0-0.5-0.2-0.9-0.5-1.4c-0.4-0.6-1.2-1.4-2.4-2.3C3.2,8.7,2.4,8.1,2.1,7.7C1.6,7,1.4,6.3,1.4,5.5
	c0-0.6,0.1-1.2,0.4-1.7c0.3-0.5,0.7-0.9,1.2-1.2c0.5-0.3,1.1-0.4,1.7-0.4c0.7,0,1.3,0.2,1.9,0.5C7.2,3,7.9,3.6,8.5,4.5L7.4,5.4
	C6.8,4.7,6.4,4.2,6,4C5.6,3.8,5.2,3.7,4.8,3.7c-0.6,0-1,0.2-1.4,0.5C3,4.5,2.8,5,2.8,5.5c0,0.3,0.1,0.6,0.2,0.9
	C3.2,6.6,3.4,7,3.7,7.3c0.2,0.2,0.8,0.6,1.8,1.4c1.2,0.9,2.1,1.7,2.5,2.4c0.5,0.7,0.7,1.4,0.7,2.1c0,1-0.4,1.9-1.2,2.7
	C6.8,16.6,5.9,17,4.8,17c-0.9,0-1.6-0.2-2.3-0.7C1.7,15.9,1.1,15.1,0.5,14z"/>
<path class="st0" d="M10.6,2.6h1.6l3.6,5.8l3.5-5.8H21l-4.5,7.4v6.7h-1.4V9.9L10.6,2.6z"/>
<path class="st0" d="M35.2,2.5H38c1.6,0,2.7,0.1,3.3,0.2c0.8,0.2,1.5,0.6,2,1.2C43.8,4.5,44,5.3,44,6.3c0,0.9-0.2,1.7-0.7,2.3
	c-0.5,0.6-1.2,1-2.1,1.2c-0.6,0.2-1.8,0.2-3.6,0.2h-1v6.5h-1.4V2.5z M36.6,3.9v4.7l2.4,0c1,0,1.7-0.1,2.1-0.3c0.4-0.2,0.8-0.5,1-0.8
	c0.3-0.4,0.4-0.8,0.4-1.3c0-0.5-0.1-0.9-0.4-1.3c-0.3-0.4-0.6-0.7-1-0.8c-0.4-0.2-1.1-0.2-2-0.2H36.6z"/>
<path class="st0" d="M46.7,2.5h1.4v6h7.2v-6h1.4v14.1h-1.4V9.8h-7.2v6.8h-1.4V2.5z"/>
<path class="st1" d="M66.9,2.2c2.1,0,3.9,0.7,5.4,2.1c1.4,1.4,2.2,3.2,2.2,5.3c0,2.1-0.7,3.8-2.2,5.2C70.8,16.3,69.1,17,67,17
	c-2.1,0-3.9-0.7-5.3-2.1c-1.4-1.4-2.2-3.2-2.2-5.2c0-1.4,0.3-2.6,1-3.8c0.7-1.2,1.5-2.1,2.7-2.7C64.4,2.6,65.6,2.2,66.9,2.2z
	 M67,3.6c-1,0-2,0.3-3,0.8c-0.9,0.5-1.7,1.3-2.2,2.2C61.3,7.5,61,8.5,61,9.7c0,1.7,0.6,3.1,1.7,4.2c1.2,1.2,2.6,1.7,4.2,1.7
	c1.1,0,2.1-0.3,3-0.8c0.9-0.5,1.7-1.3,2.2-2.2c0.5-0.9,0.8-1.9,0.8-3.1c0-1.1-0.3-2.1-0.8-3c-0.5-0.9-1.3-1.6-2.2-2.2
	C69,3.9,68,3.6,67,3.6z"/>
<path class="st1" d="M77,2.5h1.4v14.1H77V2.5z"/>
<path class="st0" d="M91.9,2.5h1.6l3.7,5.8l3.6-5.8h1.7l-4.5,7.4v6.7h-1.4V9.8L91.9,2.5z"/>
<polygon class="st0" points="88.3,2.5 88.3,13.3 80.6,4.5 80.6,6.6 89.4,16.6 89.7,16.6 89.7,2.5 "/>
<polygon class="st0" points="30.4,2.5 30.2,2.5 24.5,14.1 21.1,7.2 20.8,9.4 24.3,16.6 24.7,16.6 29.7,6.5 31.1,16.6 32.5,16.6 "/>
</svg>
